<svg width="26" height="26" viewBox="0 0 26 26" fill="none" xmlns="http://www.w3.org/2000/svg">
<foreignObject x="-65.4" y="-65.4" width="156.8" height="156.8"><div xmlns="http://www.w3.org/1999/xhtml" style="backdrop-filter:blur(32.7px);clip-path:url(#bgblur_0_4667_18082_clip_path);height:100%;width:100%"></div></foreignObject><g data-figma-bg-blur-radius="65.4">
<circle cx="13" cy="13" r="13" fill="#181C2B" fill-opacity="0.9"/>
<circle cx="13" cy="13" r="12.5" stroke="#AD7AFF" stroke-opacity="0.12"/>
</g>
<path d="M9.87223 11.8612C9.24961 11.8612 8.62699 11.8612 8.00437 11.8612C7.92534 11.8612 7.93642 11.8523 7.93568 11.9284C7.93494 12.1455 7.93568 12.3634 7.93568 12.5805C7.93568 12.6322 7.93494 12.633 7.88472 12.633C7.75916 12.633 7.63287 12.633 7.50731 12.633C7.46078 12.633 7.4593 12.6322 7.45339 12.5835C7.43936 12.4587 7.42459 12.3338 7.41425 12.2083C7.39209 11.9254 7.38101 11.6425 7.38766 11.3589C7.41868 10.0251 7.78944 8.79606 8.51768 7.67712C8.7784 7.27607 9.06866 6.89718 9.40988 6.56039C10.1093 5.87056 10.9306 5.39492 11.8856 5.15414C12.2689 5.05739 12.6596 5.00938 13.0555 5.00126C13.7586 4.98649 14.4381 5.1017 15.0932 5.35946C16.0194 5.72432 16.7809 6.31001 17.3968 7.08921C17.9235 7.75541 18.3319 8.48586 18.5985 9.29312C18.7374 9.71485 18.8341 10.1462 18.8902 10.5871C18.9501 11.0583 18.9626 11.5303 18.936 12.0037C18.9257 12.1906 18.9065 12.3774 18.8851 12.5635C18.8843 12.5717 18.8814 12.5805 18.8806 12.5887C18.8799 12.6226 18.8659 12.6352 18.8304 12.6344C18.7366 12.6322 18.6428 12.6337 18.549 12.6337C18.5151 12.6337 18.4811 12.6344 18.4464 12.6337C18.4028 12.633 18.4021 12.6322 18.4021 12.5872C18.4021 12.3996 18.4021 12.212 18.4021 12.0244C18.4021 11.9815 18.4006 11.9387 18.4028 11.8966C18.4043 11.8678 18.3917 11.8589 18.3651 11.8612C18.3526 11.8626 18.3393 11.8612 18.3267 11.8612C17.0815 11.8612 15.8362 11.8612 14.591 11.8612C14.512 11.8612 14.5194 11.8486 14.5186 11.9321C14.5186 12.1492 14.5186 12.3671 14.5186 12.5842C14.5186 12.6322 14.5179 12.633 14.4699 12.6337C14.2527 12.6337 14.0348 12.6337 13.8177 12.6337C13.8029 12.6337 13.7882 12.6337 13.7727 12.6337C13.7549 12.6337 13.7446 12.6404 13.7446 12.6596C13.7446 12.6743 13.7446 12.6891 13.7446 12.7046C13.7446 12.9306 13.7446 13.1566 13.7446 13.3826C13.7446 13.4432 13.7527 13.4424 13.687 13.4424C13.3413 13.4424 12.9964 13.4424 12.6508 13.4424C12.5946 13.4424 12.5946 13.4417 12.5946 13.3878C12.5946 13.1551 12.5946 12.9232 12.5946 12.6906C12.5946 12.6352 12.5939 12.6344 12.54 12.6344C12.3184 12.6344 12.0968 12.6344 11.8745 12.6344C11.8169 12.6344 11.8199 12.6374 11.8199 12.5783C11.8199 12.3649 11.8199 12.1522 11.8199 11.9387C11.8199 11.9217 11.8191 11.9047 11.8199 11.8877C11.8199 11.8685 11.811 11.8612 11.7925 11.8619C11.7755 11.8626 11.7586 11.8619 11.7416 11.8619C11.1175 11.8612 10.4949 11.8612 9.87223 11.8612Z" fill="#01F1E3"/>
<path d="M18.8164 12.9287H18.2027C18.179 12.9287 18.1554 12.9279 18.1318 12.9287C18.1133 12.9294 18.1037 12.9235 18.1052 12.9036C18.1059 12.8881 18.1052 12.874 18.1052 12.8592V12.2071C18.1052 12.1591 18.1044 12.1583 18.0557 12.1583H14.8776C14.8074 12.1583 14.8126 12.148 14.8126 12.2233V12.8622C14.8126 12.9338 14.8193 12.9287 14.7483 12.9287H14.1087C14.029 12.9287 14.0386 12.9205 14.0378 13.0018V13.6791C14.0378 13.7293 14.0504 13.7374 13.9839 13.7374H12.3531C12.2985 13.7367 12.2978 13.7367 12.2978 13.6813V12.9841C12.2978 12.9294 12.297 12.9287 12.2424 12.9287H11.5511C11.5289 12.9294 11.52 12.9191 11.5208 12.8984C11.5215 12.8829 11.5215 12.8681 11.5215 12.8526C11.5215 12.6355 11.5208 12.4183 11.5215 12.2004C11.5215 12.1694 11.5156 12.151 11.4794 12.1576C11.472 12.1583 11.4624 12.1576 11.4543 12.1576H8.25626C8.23706 12.1569 8.22967 12.165 8.22967 12.1842C8.23041 12.1982 8.22967 12.2137 8.22967 12.2285C8.22967 12.439 8.23041 12.6502 8.22967 12.8615C8.22967 12.9353 8.24075 12.9279 8.16099 12.9279H7.50217C7.45786 12.9287 7.45786 12.9294 7.45638 12.9752C7.45564 12.9885 7.45638 13.0011 7.45638 13.0136V16.1599C7.45638 16.2316 7.45786 16.2212 7.51842 16.2212C7.73778 16.222 7.95788 16.222 8.17723 16.222C8.23263 16.222 8.22967 16.2183 8.22967 16.2722V16.9377C8.22967 16.996 8.22377 16.9923 8.28433 16.9923H11.4705C11.5274 16.9923 11.5222 16.9938 11.5222 16.9406C11.5222 16.7213 11.5215 16.5012 11.5222 16.2818C11.5222 16.2176 11.5149 16.2205 11.5843 16.2212C11.797 16.2212 12.0112 16.2212 12.2239 16.2205C12.3081 16.2205 12.2978 16.2323 12.2978 16.1459V14.6296C12.2978 14.5713 12.2941 14.5742 12.3524 14.5742H13.9647C14.0489 14.5742 14.0378 14.5631 14.0378 14.6503V16.1607C14.0378 16.2286 14.0327 16.2212 14.0999 16.2212C14.3133 16.222 14.5268 16.222 14.7395 16.222H14.7838C14.8023 16.2212 14.8119 16.2286 14.8119 16.2471C14.8111 16.2626 14.8119 16.2774 14.8119 16.2929V16.9451C14.8119 16.9923 14.8126 16.9931 14.8606 16.9931C15.0098 16.9938 15.1583 16.9931 15.3082 16.9931H18.0387C18.1148 16.9931 18.1037 16.9997 18.1044 16.9288V16.27C18.1044 16.2168 18.1037 16.222 18.1524 16.222H18.8046C18.8201 16.222 18.8349 16.2212 18.8504 16.222C18.8689 16.2227 18.877 16.2139 18.8763 16.1954C18.8763 16.1828 18.877 16.1703 18.877 16.157C18.877 15.1023 18.8763 14.0469 18.877 12.9915C18.8785 12.9228 18.8799 12.9287 18.8164 12.9287ZM10.5444 14.62L11.0821 15.1577C11.099 15.1747 11.1168 15.1887 11.1301 15.2005C10.9151 15.414 10.7046 15.6237 10.4919 15.8357C10.2896 15.6333 10.0798 15.4236 9.87005 15.2138C9.84198 15.2271 9.82869 15.2463 9.81318 15.2626C9.62854 15.4457 9.44537 15.6304 9.26072 15.8136C9.22675 15.8475 9.22601 15.8475 9.19278 15.8136C9.00444 15.6252 8.81684 15.4361 8.62777 15.2485C8.58493 15.2057 8.59305 15.2116 8.62924 15.1754C8.81389 14.9923 8.99705 14.8076 9.1817 14.6244C9.19573 14.6104 9.21567 14.5993 9.23414 14.586C9.01478 14.3652 8.80429 14.1547 8.59527 13.9464C8.80872 13.733 9.01847 13.524 9.2334 13.309C9.43946 13.5151 9.64996 13.7256 9.85824 13.9339C10.0702 13.7219 10.2807 13.5114 10.4868 13.3046C10.7061 13.524 10.9159 13.7345 11.1352 13.9531C11.1242 13.9612 11.105 13.9723 11.0909 13.9878C10.9085 14.1695 10.7253 14.3512 10.5436 14.5343C10.4941 14.5816 10.4934 14.5698 10.5444 14.62ZM17.7049 15.2522C17.5195 15.4384 17.3348 15.6237 17.1487 15.8084C17.1029 15.8542 17.114 15.8542 17.0667 15.8069C16.8843 15.6245 16.7011 15.4428 16.5195 15.2589C16.5039 15.2448 16.4943 15.2249 16.4788 15.2042C16.2573 15.4251 16.0468 15.6356 15.8392 15.8431C15.6273 15.6304 15.4182 15.4214 15.2048 15.2064C15.2735 15.1378 15.3473 15.0639 15.4212 14.9908C15.5453 14.8667 15.6686 14.7441 15.7927 14.6208C15.8414 14.5713 15.8429 14.5831 15.7942 14.5343C15.6117 14.3519 15.4301 14.1702 15.2462 13.9871C15.2321 13.973 15.2137 13.9619 15.1996 13.9516L15.8407 13.3105C16.046 13.5158 16.2558 13.7263 16.4692 13.9398C16.4929 13.9169 16.515 13.8977 16.535 13.8777C16.7152 13.6983 16.8947 13.5181 17.0734 13.3393C17.1074 13.3053 17.1029 13.2987 17.1413 13.3378L17.7115 13.908C17.7425 13.939 17.7425 13.9398 17.7108 13.9723C17.5276 14.1569 17.3437 14.3401 17.1598 14.5233C17.1428 14.5402 17.1221 14.5513 17.1066 14.5631C17.1207 14.5971 17.1384 14.6097 17.1532 14.6237L17.7056 15.1762C17.7477 15.2168 17.7484 15.2094 17.7049 15.2522Z" fill="#01F1E3"/>
<path d="M14.544 17.2903C14.5256 17.2903 14.5174 17.2807 14.5182 17.2637V16.5724C14.5182 16.5126 14.5219 16.5185 14.4628 16.5178C14.2501 16.5178 14.0359 16.5185 13.8232 16.5178C13.7331 16.5178 13.7449 16.5303 13.7449 16.441C13.7442 15.9402 13.7449 15.4394 13.7442 14.9387C13.7442 14.8619 13.7515 14.8715 13.6755 14.8715H12.6577C12.5868 14.8715 12.5949 14.8656 12.5935 14.9379V16.4602C12.5935 16.5251 12.5971 16.5185 12.5351 16.5185C12.3431 16.5192 12.151 16.5185 11.959 16.5185H11.8179C11.8179 16.7571 11.8187 16.9868 11.8179 17.2172C11.8179 17.3021 11.8283 17.2911 11.7433 17.2911H9.09555C9.0734 17.2911 9.04976 17.2859 9.02539 17.2984C9.0409 17.3265 9.05419 17.3501 9.06749 17.373C9.56086 18.2268 10.1547 19.0016 10.8371 19.7128C11.168 20.0578 11.5336 20.3598 11.9354 20.6161C12.332 20.8687 12.7611 21.015 13.2382 20.9994C13.5588 20.9891 13.8608 20.9042 14.1437 20.7594C14.5573 20.5482 14.9214 20.2675 15.2575 19.9514C15.4938 19.7291 15.7132 19.4898 15.9266 19.2461C16.4377 18.6604 16.8898 18.0311 17.2768 17.356C17.2878 17.3368 17.3056 17.3199 17.3026 17.2903H14.544ZM14.2996 18.3132C14.2553 18.4905 14.1504 18.6264 14.0049 18.7335C13.8483 18.8494 13.6696 18.9181 13.4797 18.9565C13.1791 19.0171 12.883 19.0038 12.5949 18.8856C12.4539 18.8273 12.3276 18.7468 12.2212 18.636C12.1333 18.5452 12.0698 18.441 12.038 18.3177C12.0321 18.2933 12.0262 18.2689 12.027 18.2386H14.3084C14.3129 18.2645 14.3062 18.2889 14.2996 18.3132Z" fill="#01F1E3"/>
<defs>
<clipPath id="bgblur_0_4667_18082_clip_path" transform="translate(65.4 65.4)"><circle cx="13" cy="13" r="13"/>
</clipPath></defs>
</svg>
